PathFileType	4	(X/Y/Z)	 s06c0401.trc
DataRate	CameraRate	NumFrames	NumMarkers	Units	OrigDataRate	OrigDataStartFrame	OrigNumFrames
200	200	4	48	mm	200	501	2000
Frame#	Time	racr			lacr			c7			jug			rlel			rdr			llel			ldr			s2			lic			ric			lasi			rasi			rpsi			lpsi			rgt			lgt			rth1			rth2			rth3			rth4			rlfc			rmfc			rsh1			rsh2			rsh3			rsh4			rlmal			rcal			rtoe			rmt5			lth1			lth2			lth4			lth3			llfc			lmfc			llmal			lcal			lmt5			lsh1			lsh2			lsh3			lsh4			ltoe			SBIKE			LBIKE			RBIKE			
		X1	Y1	Z1	X2	Y2	Z2	X3	Y3	Z3	X4	Y4	Z4	X5	Y5	Z5	X6	Y6	Z6	X7	Y7	Z7	X8	Y8	Z8	X9	Y9	Z9	X10	Y10	Z10	X11	Y11	Z11	X12	Y12	Z12	X13	Y13	Z13	X14	Y14	Z14	X15	Y15	Z15	X16	Y16	Z16	X17	Y17	Z17	X18	Y18	Z18	X19	Y19	Z19	X20	Y20	Z20	X21	Y21	Z21	X22	Y22	Z22	X23	Y23	Z23	X24	Y24	Z24	X25	Y25	Z25	X26	Y26	Z26	X27	Y27	Z27	X28	Y28	Z28	X29	Y29	Z29	X30	Y30	Z30	X31	Y31	Z31	X32	Y32	Z32	X33	Y33	Z33	X34	Y34	Z34	X35	Y35	Z35	X36	Y36	Z36	X37	Y37	Z37	X38	Y38	Z38	X39	Y39	Z39	X40	Y40	Z40	X41	Y41	Z41	X42	Y42	Z42	X43	Y43	Z43	X44	Y44	Z44	X45	Y45	Z45	X46	Y46	Z46	X47	Y47	Z47	X48	Y48	Z48	
501	2.5050	753.649905	1153.395962	-28.561509	744.081900	1135.549528	-361.213115	795.342325	1254.988858	-191.557644	736.069119	1082.902744	-187.812807	556.527123	1038.791035	115.645720	666.081674	936.622683	-31.272000	517.083090	1048.697450	-498.677611	662.071105	933.440821	-405.615783	222.798327	1211.080437	-204.879007	374.859882	1133.597374	-375.137900	353.314093	1167.177168	-43.150123	379.976128	1079.282297	-337.934256	379.638408	1118.183951	-76.659554	268.045705	1248.309678	-183.803517	264.876752	1235.452399	-241.781542	334.904173	1114.451878	-8.793764	312.337632	1064.704130	-400.616884	426.688355	1029.763974	-11.526362	508.694800	987.692225	-25.817678	549.919669	910.881221	-28.484344	526.917406	1013.380133	-46.739182	597.125065	831.260155	-60.537822	576.942807	816.833910	-176.229134	508.841459	746.929583	-34.656624	451.411702	683.751133	-51.504678	369.850422	651.112462	-48.204189	464.613451	667.436148	-87.474398	290.474599	607.120114	-50.568915	219.302839	620.379117	-95.944009	414.155365	425.226151	-104.932108	331.091555	474.262861	-32.077843	291.251067	938.290476	-421.250007	316.970398	855.132901	-426.557984	354.406769	856.188040	-424.327813	298.165630	767.885062	-419.094691	286.031417	648.804159	-401.581932	307.763503	623.725651	-286.460524	135.996187	311.243402	-380.169710	79.067259	336.939530	-330.456920	166.997738	160.601166	-406.903623	239.245927	550.369442	-420.489839	228.136794	465.686842	-403.358109	174.947055	396.240627	-400.326033	259.192931	456.938375	-380.926774	226.469210	96.378976	-349.153795	-203.677194	871.246695	-211.886865	-48.844964	84.983899	-419.389338	-50.396113	80.626058	-22.080745	
502	2.5100	753.950773	1151.617649	-27.782029	744.643070	1134.079524	-360.029054	796.118400	1253.830079	-190.325554	733.694585	1080.528944	-187.375148	557.387860	1038.026179	117.186414	665.897575	936.805867	-31.202692	517.697805	1048.779000	-499.071769	662.480715	933.108086	-406.423269	224.252813	1214.518194	-204.628863	375.529670	1135.130042	-375.072174	348.705776	1168.953957	-47.662747	379.927611	1081.021253	-338.086972	372.668317	1118.817785	-81.253636	269.685136	1251.589247	-183.885063	266.351816	1238.340120	-241.799703	335.171036	1118.305929	-9.184956	312.493356	1067.324226	-400.305623	424.123743	1032.565297	-10.179522	507.705963	989.383375	-25.013104	547.776638	911.813726	-27.328770	526.095679	1014.543536	-46.456145	595.031264	831.665941	-58.553762	574.771592	816.429072	-174.599617	506.869632	745.954468	-32.768313	451.114424	681.380455	-49.676047	370.349889	647.036319	-46.972460	465.243466	664.950409	-85.354569	292.395898	600.141900	-49.764521	220.322959	610.454576	-94.983900	424.040848	424.547640	-104.926843	338.759038	469.343275	-31.620945	293.455244	940.447752	-420.359616	320.927269	857.835730	-425.367514	358.298107	859.580407	-422.576528	303.759923	770.219812	-418.236428	291.128173	650.869882	-399.971859	310.957595	626.617242	-284.501647	129.346456	317.900056	-378.412969	72.637277	344.429477	-329.478005	157.742373	167.163966	-406.129697	242.664097	553.256294	-419.246607	228.156746	469.371563	-401.031621	172.505912	401.816378	-398.521178	258.290581	459.722329	-377.741338	216.261627	101.545030	-349.129059	-203.512879	871.432310	-211.494917	-48.811168	85.184026	-419.312180	-50.278778	80.563802	-22.055706	
503	2.5150	754.163055	1149.990435	-27.193832	745.197158	1132.724048	-359.043573	796.871062	1252.750203	-189.523574	731.007437	1078.477529	-186.596006	558.321087	1037.583807	118.543257	665.682000	937.146385	-31.064215	518.389582	1048.888030	-499.642666	662.839902	932.637334	-406.938648	225.659662	1217.588218	-204.110765	376.237118	1136.508831	-375.037246	349.120164	1172.442406	-47.505628	379.867045	1082.552820	-338.296954	373.318923	1122.229529	-80.811391	271.427944	1254.635327	-184.131481	267.819408	1240.989042	-241.704526	334.967624	1121.715151	-9.097975	312.621821	1069.603117	-400.098529	423.035208	1033.757256	-10.121017	505.439633	990.018937	-24.115324	545.275264	912.148773	-25.988836	524.680786	1014.731310	-45.754330	592.503106	830.500910	-56.609997	571.932998	814.356122	-172.401628	504.323002	743.538435	-30.795001	449.910469	677.095279	-48.485031	370.029205	641.914695	-45.534811	465.264500	661.203798	-83.229854	293.944197	592.035470	-49.055989	221.081256	599.309230	-94.200992	433.328920	423.284606	-104.849053	346.218761	463.592331	-31.115470	296.291287	942.338021	-419.286812	325.578954	860.419776	-423.817746	362.877906	862.949731	-420.378375	310.157505	772.374194	-417.198683	297.061768	652.620161	-398.259539	314.390325	629.236191	-282.564179	123.299630	325.362378	-376.773654	66.506340	352.034876	-328.228027	149.236135	173.837650	-405.517366	246.963156	556.008290	-417.713859	228.854609	473.025855	-398.643944	170.649028	407.478678	-396.569509	257.815316	462.618423	-374.221057	206.736335	107.236628	-348.942110	-203.359173	871.572335	-211.081653	-48.783201	85.375280	-419.224361	-50.242988	80.661239	-21.926724	
504	2.5200	754.540549	1148.556422	-26.611482	745.835985	1131.555372	-358.288973	797.622409	1251.795337	-188.757930	728.810127	1077.256417	-184.824629	559.069039	1037.459741	119.719864	665.414932	937.597549	-31.028727	519.005800	1049.058084	-500.274129	662.997032	932.373355	-407.594319	227.102605	1220.381802	-203.839834	376.840547	1137.856550	-374.923947	351.880371	1175.066840	-44.616035	379.773218	1083.775939	-338.422440	377.022408	1125.095753	-77.585041	272.979114	1257.132977	-184.284253	269.300657	1243.433377	-241.781770	334.672835	1124.416276	-8.965672	312.820122	1071.627974	-400.042433	421.379750	1034.291085	-9.694061	503.989897	990.089658	-22.980855	542.407031	911.855747	-24.451382	522.735245	1014.267645	-44.768840	589.125320	828.396063	-54.357539	568.401774	811.008230	-169.765564	501.270500	739.635466	-28.510275	449.085281	671.708599	-46.729478	369.669637	634.812247	-44.502386	464.559915	656.588703	-80.883192	295.248760	582.952054	-48.442386	221.709604	587.424690	-93.713653	441.793411	421.163920	-104.456644	353.014699	457.431599	-30.587477	299.737924	944.137480	-417.899304	330.791780	862.865423	-421.793472	367.805505	866.176634	-417.761040	317.037327	774.583779	-415.945588	303.396575	654.232712	-396.420411	317.963448	631.867848	-280.485681	118.270100	333.039600	-375.480017	61.735103	360.273901	-327.723083	141.343169	180.840161	-404.923099	251.812179	558.661917	-415.831801	230.287168	476.497732	-396.424574	169.567395	413.129437	-394.677894	257.944620	465.546980	-370.788144	197.563167	112.880183	-348.767487	-203.071632	871.822186	-210.562623	-48.740688	85.716174	-419.162576	-50.264971	80.715049	-21.813342	
